<svg width="16" height="16" viewBox="0 0 16 16" fill="none" xmlns="http://www.w3.org/2000/svg">
<path d="M2.71313 4.93485H10.0556M10.0556 4.93485C10.0556 5.84007 10.7894 6.57383 11.6946 6.57383C12.5998 6.57383 13.3337 5.84 13.3337 4.93479C13.3337 4.02957 12.5998 3.29575 11.6946 3.29575C10.7894 3.29575 10.0556 4.02964 10.0556 4.93485ZM13.3337 11.0649H8.13046M8.13046 11.0649C8.13046 11.9701 7.39664 12.704 6.49142 12.704C5.58621 12.704 4.85238 11.9701 4.85238 11.0649M8.13046 11.0649C8.13046 10.1597 7.39664 9.42595 6.49142 9.42595C5.58621 9.42595 4.85238 10.1597 4.85238 11.0649M4.85238 11.0649H2.66699" stroke="white" stroke-width="1.5" stroke-linecap="round" stroke-linejoin="round"/>
</svg>
