<svg width="40" height="35" viewBox="0 0 40 35" fill="none" xmlns="http://www.w3.org/2000/svg">
<path d="M34.7985 22.9408C34.5065 22.9413 34.2151 22.9665 33.9273 23.0162C34.5317 21.2016 34.8399 19.3008 34.8401 17.3874C34.8179 13.9315 33.7777 10.5595 31.8505 7.69666C29.9233 4.83382 27.1954 2.60833 24.0109 1.3008C20.8263 -0.00673002 17.3277 -0.337745 13.9562 0.349494C10.5846 1.03673 7.49109 2.71145 5.0657 5.16248C2.64032 7.6135 0.991655 10.7311 0.327607 14.1221C-0.336441 17.5131 0.0138601 21.0257 1.33434 24.217C2.65482 27.4083 4.88634 30.1354 7.74753 32.0544C10.6087 33.9734 13.9715 34.9983 17.4117 35C19.7257 35.0025 22.0168 34.539 24.1494 33.6367C26.282 32.7345 28.213 31.4119 29.828 29.7471C30.1181 30.6683 30.6565 31.4908 31.3836 32.1234C32.1106 32.7559 32.9978 33.1739 33.9468 33.3308C34.8958 33.4878 35.8696 33.3777 36.7601 33.0126C37.6506 32.6475 38.4231 32.0419 38.9919 31.2627C39.5607 30.4835 39.9035 29.5614 39.9824 28.5984C40.0614 27.6355 39.8732 26.6694 39.439 25.8072C39.0047 24.9451 38.3412 24.2207 37.5221 23.7143C36.703 23.2078 35.7603 22.9392 34.7985 22.9381V22.9408ZM17.4117 30.7303C14.7785 30.7472 12.1996 29.9781 10.0021 28.5206C7.80464 27.0631 6.08753 24.9828 5.06858 22.5436C4.04963 20.1043 3.77474 17.416 4.27879 14.8196C4.78283 12.2232 6.04309 9.83567 7.89974 7.9598C9.75639 6.08393 12.1258 4.80423 14.7074 4.28301C17.2891 3.76179 19.9666 4.02252 22.4005 5.03214C24.8345 6.04177 26.9151 7.75479 28.3785 9.95397C29.842 12.1531 30.6223 14.7394 30.6206 17.3847C30.6266 20.9122 29.2398 24.2981 26.7643 26.7999C24.2888 29.3017 20.9267 30.7152 17.4153 30.7303H17.4117ZM34.7958 31.1071C34.2231 31.1105 33.6623 30.943 33.1845 30.6259C32.7066 30.3087 32.3333 29.8562 32.1118 29.3257C31.8903 28.7951 31.8305 28.2105 31.9402 27.6458C32.0498 27.0811 32.3239 26.5618 32.7276 26.1538C33.1314 25.7458 33.6466 25.4674 34.2081 25.3539C34.7695 25.2404 35.3519 25.2969 35.8813 25.5163C36.4107 25.7356 36.8634 26.108 37.1819 26.5861C37.5005 27.0642 37.6705 27.6266 37.6705 28.2019C37.6705 28.969 37.3686 29.7049 36.8305 30.2491C36.2925 30.7934 35.562 31.1018 34.7985 31.1071H34.7958Z" fill="white"/>
</svg>
