<svg width="16" height="16" viewBox="0 0 16 16" fill="none" xmlns="http://www.w3.org/2000/svg">
<path d="M2.76195 3.71428C2.50936 3.71428 2.26712 3.81462 2.08852 3.99323C1.90991 4.17183 1.80957 4.41407 1.80957 4.66666V13.2381C1.80957 13.4907 1.90991 13.7329 2.08852 13.9115C2.26712 14.0901 2.50936 14.1905 2.76195 14.1905H13.2381C13.4907 14.1905 13.733 14.0901 13.9116 13.9115C14.0902 13.7329 14.1905 13.4907 14.1905 13.2381V4.66666C14.1905 4.41407 14.0902 4.17183 13.9116 3.99323C13.733 3.81462 13.4907 3.71428 13.2381 3.71428H11.3334M1.80957 7.52382H14.1905M4.66671 1.80951V5.61903M11.3334 1.80951V5.61903M4.66671 3.71428H9.42862" stroke="#A6A6A6" stroke-width="1.5" stroke-linecap="round" stroke-linejoin="round"/>
</svg>
