<svg width="16" height="16" viewBox="0 0 16 16" fill="none" xmlns="http://www.w3.org/2000/svg">
<path d="M4.66671 3.2381V5.14286M8.00004 1.80952V5.14286M11.3334 3.2381V5.14286M2.76195 7.5238H13.2381C13.7641 7.5238 14.1905 7.9502 14.1905 8.47618V13.2381C14.1905 13.7641 13.7641 14.1905 13.2381 14.1905H2.76195C2.23597 14.1905 1.80957 13.7641 1.80957 13.2381V8.47618C1.80957 7.9502 2.23597 7.5238 2.76195 7.5238ZM9.42862 10.8571C9.42862 11.6461 8.78902 12.2857 8.00005 12.2857C7.21107 12.2857 6.57147 11.6461 6.57147 10.8571C6.57147 10.0682 7.21107 9.42858 8.00005 9.42858C8.78902 9.42858 9.42862 10.0682 9.42862 10.8571Z" stroke="white" stroke-width="1.5" stroke-linecap="round" stroke-linejoin="round"/>
</svg>
