<svg width="24" height="24" viewBox="0 0 24 24" fill="none" xmlns="http://www.w3.org/2000/svg">
<path d="M12 5.60714C12.4142 5.60714 12.75 5.27135 12.75 4.85714C12.75 4.44293 12.4142 4.10714 12 4.10714C11.5858 4.10714 11.25 4.44293 11.25 4.85714C11.25 5.27135 11.5858 5.60714 12 5.60714Z" stroke="#093359" stroke-width="1.5" stroke-linecap="round" stroke-linejoin="round"/>
<path d="M12 12.75C12.4142 12.75 12.75 12.4143 12.75 12C12.75 11.5858 12.4142 11.25 12 11.25C11.5858 11.25 11.25 11.5858 11.25 12C11.25 12.4143 11.5858 12.75 12 12.75Z" stroke="#093359" stroke-width="1.5" stroke-linecap="round" stroke-linejoin="round"/>
<path d="M12 19.8928C12.4142 19.8928 12.75 19.557 12.75 19.1428C12.75 18.7286 12.4142 18.3928 12 18.3928C11.5858 18.3928 11.25 18.7286 11.25 19.1428C11.25 19.557 11.5858 19.8928 12 19.8928Z" stroke="#093359" stroke-width="1.5" stroke-linecap="round" stroke-linejoin="round"/>
</svg>
