<svg width="16" height="16" viewBox="0 0 16 16" fill="none" xmlns="http://www.w3.org/2000/svg">
<path d="M4.22065 5.68611C4.3613 5.39664 4.57632 5.14972 4.8437 4.97061C5.11108 4.79149 5.42124 4.6866 5.74245 4.66666C5.96994 4.66832 6.19384 4.72354 6.396 4.82785C6.61377 4.94378 6.80885 5.09801 6.9719 5.28315C8.13664 6.59025 7.60722 9.42798 8.74901 10.7163C8.91191 10.9008 9.10706 11.0541 9.32491 11.1686C9.52635 11.2753 9.75054 11.3318 9.97846 11.3333C10.4028 11.3128 10.8037 11.1322 11.1003 10.828C11.2996 10.6428 11.4645 10.4237 11.5873 10.1809M5.32716 7.28615C5.32716 8.20492 4.58235 8.94973 3.66358 8.94973C2.74481 8.94973 2 8.20492 2 7.28615C2 6.36738 2.74481 5.62257 3.66358 5.62257C4.58235 5.62257 5.32716 6.36738 5.32716 7.28615ZM13.765 8.60737C13.765 9.52614 13.0202 10.2709 12.1015 10.2709C11.1827 10.2709 10.4379 9.52614 10.4379 8.60737C10.4379 7.6886 11.1827 6.94379 12.1015 6.94379C13.0202 6.94379 13.765 7.6886 13.765 8.60737Z" stroke="white" stroke-width="1.5" stroke-miterlimit="10" stroke-linecap="round"/>
</svg>
