<svg width="55" height="20" viewBox="0 0 55 20" fill="none" xmlns="http://www.w3.org/2000/svg">
<path d="M11.8731 8.98671C11.8731 6.11487 9.73688 3 5.93656 3C2.13624 3 0 6.11658 0 8.98671C0 11.8585 2.13624 14.9734 5.93656 14.9734C7.36622 14.9734 8.54495 14.5301 9.47274 13.8438L10.6663 15.0812L11.5793 14.1348L10.4303 12.9436C11.3729 11.8106 11.8731 10.3764 11.8731 8.98671ZM9.39845 11.8722L8.21972 10.6657L7.30679 11.6121L8.44094 12.7879C7.71951 13.3064 6.83464 13.5974 5.93656 13.5974C3.65339 13.5974 1.5023 11.7336 1.5023 8.98499C1.5023 6.23638 3.65339 4.3726 5.93656 4.3726C8.21972 4.3726 10.3708 6.23638 10.3708 8.98499C10.3708 10.1163 10.0027 11.0935 9.39845 11.8722Z" fill="#1D1D1D"/>
<path d="M18.0979 14.0756H18.0682C17.6703 14.7927 16.8152 15.1914 15.9617 15.1914C14.4742 15.1914 13 14.3511 13 12.1981V7.04999H14.3257V11.6778C14.3257 12.869 14.7978 13.9078 16.1086 13.9078C17.3468 13.9078 18.0979 13.0367 18.0979 11.5255V7.04999H19.4236V15.0083H18.0979V14.0756Z" fill="#1D1D1D"/>
<path d="M22.209 3.54999C22.7241 3.54999 23.1368 3.97785 23.1368 4.51183C23.1368 5.04581 22.7241 5.47367 22.209 5.47367C21.694 5.47367 21.2812 5.04581 21.2812 4.51183C21.2812 3.97785 21.694 3.54999 22.209 3.54999ZM21.5454 7.03282H22.871V14.9911H21.5454V7.03282Z" fill="#1D1D1D"/>
<path d="M30.0901 10.3654C30.0901 9.17418 29.6179 8.13532 28.3072 8.13532C27.069 8.13532 26.3178 9.00645 26.3178 10.5177V14.9932H24.9922V7.03484H26.3178V7.96588H26.3476C26.7454 7.24878 27.5989 6.85001 28.4541 6.85001C29.9415 6.85001 31.4158 7.69034 31.4158 9.84336V14.9897H30.0901V10.3654Z" fill="#1D1D1D"/>
<path d="M38.8266 8.77602C38.2966 8.24204 37.7073 7.9819 37.0436 7.9819C35.7328 7.9819 34.5095 8.97455 34.5095 10.929C34.5095 12.5481 35.6437 13.7393 37.1757 13.7393C37.8096 13.7393 38.4287 13.373 38.8844 12.9297L39.6652 13.9378C38.9735 14.6703 38.0011 15.0229 37.0139 15.0229C34.6565 15.0229 33.0947 13.0838 33.0947 10.8845C33.0947 8.6083 34.8182 6.70001 37.0288 6.70001C38.1926 6.70001 39.1799 7.20318 39.7247 7.69266L38.8266 8.77602Z" fill="#1D1D1D"/>
<path d="M46.1926 14.0756H46.1629C45.7651 14.7927 44.9099 15.1914 44.0564 15.1914C42.569 15.1914 41.0947 14.3511 41.0947 12.1981V7.04999H42.4204V11.6778C42.4204 12.869 42.8925 13.9078 44.2033 13.9078C45.4415 13.9078 46.1926 13.0367 46.1926 11.5255V7.04999H47.5183V15.0083H46.1926V14.0756Z" fill="#1D1D1D"/>
<path d="M50.3475 12.4973C50.4367 13.353 51.1284 13.7963 51.939 13.7963C53.1326 13.7963 53.4561 13.1237 53.4561 12.6513C53.4561 12.1327 53.1326 11.811 52.1008 11.5217L50.7603 11.1401C49.6261 10.82 49.1985 10.0396 49.1985 9.09316C49.1985 7.77875 50.156 6.67999 51.939 6.67999C53.8986 6.67999 54.5754 7.96359 54.5754 9.15477H53.3373C53.2349 8.25283 52.7925 7.81127 51.9076 7.81127C51.0673 7.81127 50.5225 8.32985 50.5225 8.95624C50.5225 9.39951 50.7586 9.73496 51.3777 9.91809L53.1755 10.4521C54.3839 10.8183 54.7818 11.5063 54.7818 12.5298C54.7818 14.1488 53.4116 15.0046 51.9968 15.0046C50.199 15.0046 49.1539 14.0119 49.1094 12.499H50.3475V12.4973Z" fill="#1D1D1D"/>
</svg>
