<svg width="24" height="24" viewBox="0 0 24 24" fill="none" xmlns="http://www.w3.org/2000/svg">
<path d="M12 5.60715C12.4142 5.60715 12.75 5.27136 12.75 4.85715C12.75 4.44293 12.4142 4.10715 12 4.10715C11.5858 4.10715 11.25 4.44293 11.25 4.85715C11.25 5.27136 11.5858 5.60715 12 5.60715Z" stroke="#093359" stroke-width="1.5" stroke-linecap="round" stroke-linejoin="round"/>
<path d="M12 12.7501C12.4142 12.7501 12.75 12.4143 12.75 12.0001C12.75 11.5858 12.4142 11.2501 12 11.2501C11.5858 11.2501 11.25 11.5858 11.25 12.0001C11.25 12.4143 11.5858 12.7501 12 12.7501Z" stroke="#093359" stroke-width="1.5" stroke-linecap="round" stroke-linejoin="round"/>
<path d="M12 19.8928C12.4142 19.8928 12.75 19.557 12.75 19.1428C12.75 18.7286 12.4142 18.3928 12 18.3928C11.5858 18.3928 11.25 18.7286 11.25 19.1428C11.25 19.557 11.5858 19.8928 12 19.8928Z" stroke="#093359" stroke-width="1.5" stroke-linecap="round" stroke-linejoin="round"/>
</svg>
