<svg width="80" height="16" viewBox="0 0 80 16" fill="none" xmlns="http://www.w3.org/2000/svg">
<path d="M12.0885 15.5506L11.1571 14.4107C10.6816 14.6204 10.1796 14.7844 9.65066 14.9019C9.12241 15.0333 8.56782 15.0986 7.98616 15.0986C6.95599 15.0986 5.99826 14.9215 5.11297 14.5682C4.22767 14.201 3.44846 13.6967 2.77462 13.0553C2.11394 12.4001 1.59227 11.6469 1.20889 10.795C0.838674 9.9301 0.654297 8.99988 0.654297 8.00434C0.654297 7.00881 0.839405 6.08512 1.20889 5.23326C1.59227 4.36834 2.11394 3.61516 2.77462 2.973C3.44846 2.31778 4.22767 1.81348 5.11297 1.46011C5.99826 1.09295 6.95599 0.910102 7.98616 0.910102C9.01632 0.910102 9.97405 1.09368 10.8593 1.46011C11.7578 1.81421 12.537 2.3185 13.1977 2.973C13.8715 3.61516 14.3932 4.36834 14.7634 5.23326C15.1329 6.08512 15.318 7.00881 15.318 8.00434C15.318 8.99988 15.1263 9.91051 14.7437 10.7754C14.3742 11.6273 13.8657 12.3739 13.2182 13.0161L14.6054 14.7256L12.0885 15.5506ZM7.98616 12.485C8.25028 12.485 8.49465 12.4654 8.71927 12.4262C8.95705 12.3739 9.18167 12.3014 9.39312 12.21L7.90714 10.3626L10.4035 9.53682L11.4337 10.7943C11.7373 10.4141 11.9685 9.98888 12.1273 9.51723C12.2985 9.04559 12.3848 8.54129 12.3848 8.00434C12.3848 7.36218 12.2722 6.77299 12.0475 6.23532C11.8229 5.68531 11.5127 5.21367 11.1162 4.82039C10.7196 4.41405 10.2572 4.09986 9.72894 3.8771C9.20069 3.64128 8.61903 3.52301 7.98542 3.52301C7.35182 3.52301 6.78332 3.64128 6.2419 3.8771C5.71365 4.09986 5.25125 4.41405 4.85469 4.82039C4.47131 5.21367 4.16768 5.68531 3.94306 6.23532C3.71845 6.77227 3.60577 7.36218 3.60577 8.00434C3.60577 8.64651 3.71845 9.22264 3.94306 9.77337C4.16768 10.3234 4.47131 10.8016 4.85469 11.2079C5.25125 11.6012 5.71365 11.9154 6.2419 12.1512C6.78332 12.3739 7.36499 12.485 7.98542 12.485H7.98616ZM21.7777 15.079C20.9854 15.079 20.2786 14.9085 19.6574 14.5682C19.0494 14.2141 18.5673 13.7294 18.211 13.1141C17.8678 12.498 17.6959 11.7906 17.6959 10.9917V4.64407H20.411V10.5991C20.411 11.2543 20.6027 11.7782 20.9854 12.1715C21.3812 12.5648 21.9102 12.7614 22.5709 12.7614C23.0201 12.7614 23.4225 12.6765 23.7795 12.506C24.1498 12.3224 24.4534 12.067 24.6912 11.7398V4.64552H27.4056V14.8845H24.6912V14.0588C23.8981 14.7401 22.9272 15.0804 21.7777 15.0804V15.079ZM30.1654 14.8824V4.64334H32.8805V14.8824H30.1654ZM31.5131 3.42505C31.0902 3.42505 30.7273 3.27412 30.4229 2.973C30.1193 2.67187 29.9671 2.31125 29.9671 1.89185C29.9671 1.47245 30.1193 1.09949 30.4229 0.810694C30.7266 0.509568 31.0902 0.358643 31.5131 0.358643C31.936 0.358643 32.312 0.509568 32.6032 0.810694C32.9069 1.09876 33.059 1.45939 33.059 1.89185C33.059 2.32431 32.9069 2.67115 32.6032 2.973C32.3128 3.27412 31.9491 3.42505 31.5131 3.42505ZM35.6476 14.8824V4.64334H38.3628V5.48867C39.142 4.79427 40.1063 4.44743 41.2557 4.44743C42.0613 4.44743 42.768 4.62448 43.376 4.97785C43.9972 5.31815 44.4794 5.79633 44.8225 6.41237C45.1664 7.01534 45.3376 7.72281 45.3376 8.53476V14.8824H42.6232V8.92731C42.6232 8.25903 42.4315 7.73515 42.0481 7.35493C41.6647 6.96165 41.143 6.76501 40.4824 6.76501C40.02 6.76501 39.6102 6.85644 39.2539 7.04002C38.8969 7.21053 38.5998 7.45942 38.362 7.78666V14.8809H35.6469L35.6476 14.8824ZM52.9724 15.079C51.9554 15.079 51.0371 14.8497 50.2177 14.3911C49.399 13.9195 48.7515 13.2838 48.2759 12.485C47.8003 11.6723 47.5625 10.7689 47.5625 9.77264C47.5625 8.77639 47.8003 7.85995 48.2759 7.06033C48.7515 6.26144 49.399 5.62581 50.2177 5.15417C51.0371 4.68252 51.9554 4.4467 52.9724 4.4467C53.7911 4.4467 54.571 4.60416 55.3107 4.91835C56.0636 5.23253 56.7111 5.68459 57.2525 6.2745L55.588 8.02394C55.2046 7.60454 54.8022 7.29688 54.3793 7.10024C53.9696 6.89054 53.5204 6.78605 53.0316 6.78605C52.5034 6.78605 52.0278 6.91739 51.6049 7.17933C51.1952 7.44128 50.8652 7.79537 50.6142 8.24089C50.3765 8.68641 50.2572 9.19724 50.2572 9.7741C50.2572 10.351 50.3765 10.8291 50.6142 11.287C50.8652 11.7325 51.2091 12.0859 51.6444 12.3485C52.0805 12.5974 52.5626 12.7222 53.0909 12.7222C53.5533 12.7222 53.9828 12.6308 54.3786 12.4472C54.7883 12.2506 55.1775 11.9625 55.5478 11.5823L57.1728 13.2722C56.6445 13.8353 56.0102 14.2808 55.2705 14.6088C54.5308 14.923 53.764 15.0804 52.9716 15.0804L52.9724 15.079ZM63.2315 15.079C62.4384 15.079 61.7317 14.9085 61.1112 14.5682C60.5032 14.2141 60.0211 13.7294 59.6647 13.1141C59.3216 12.498 59.1497 11.7906 59.1497 10.9917V4.64407H61.8648V10.5991C61.8648 11.2543 62.0565 11.7782 62.4392 12.1715C62.8357 12.5648 63.364 12.7614 64.0246 12.7614C64.4739 12.7614 64.877 12.6765 65.2333 12.506C65.6035 12.3224 65.9072 12.067 66.145 11.7398V4.64552H68.8601V14.8845H66.145V14.0588C65.3526 14.7401 64.3817 15.0804 63.2323 15.0804L63.2315 15.079ZM75.483 15.079C74.5319 15.079 73.6532 14.9614 72.8476 14.7249C72.0421 14.476 71.3411 14.1219 70.747 13.6633L72.0947 11.8747C72.6896 12.268 73.2573 12.5626 73.7988 12.7592C74.3533 12.9559 74.9021 13.0538 75.4435 13.0538C76.0515 13.0538 76.5337 12.9559 76.89 12.7592C77.2602 12.5495 77.4446 12.2811 77.4446 11.9538C77.4446 11.6919 77.3385 11.4822 77.1278 11.3247C76.9295 11.1673 76.6061 11.0562 76.1569 10.9909L74.1748 10.6963C73.1447 10.5389 72.3654 10.2116 71.8365 9.71387C71.3082 9.20304 71.0441 8.53476 71.0441 7.70902C71.0441 7.04074 71.2153 6.47114 71.5592 5.9995C71.9162 5.51479 72.4108 5.14111 73.0452 4.87916C73.6919 4.60416 74.4587 4.46629 75.344 4.46629C76.0969 4.46629 76.83 4.57078 77.5433 4.78048C78.2699 4.99018 78.9503 5.3109 79.5839 5.74336L78.2764 7.49207C77.7087 7.13797 77.1673 6.88256 76.6515 6.72583C76.1364 6.56837 75.6147 6.49001 75.0857 6.49001C74.597 6.49001 74.2004 6.58143 73.8968 6.76501C73.6063 6.94859 73.4607 7.19094 73.4607 7.49207C73.4607 7.76707 73.5661 7.9833 73.7775 8.14076C73.989 8.29822 74.3519 8.40923 74.8677 8.47454L76.8292 8.76913C77.8594 8.91353 78.6459 9.24078 79.1873 9.7516C79.7288 10.2494 80.0002 10.8981 80.0002 11.697C80.0002 12.3522 79.8019 12.9348 79.4054 13.4457C79.0088 13.9434 78.474 14.3432 77.8001 14.6444C77.1263 14.9324 76.3537 15.0768 75.4815 15.0768L75.483 15.079Z" fill="white"/>
</svg>
