<svg width="16" height="16" viewBox="0 0 16 16" fill="none" xmlns="http://www.w3.org/2000/svg">
<path d="M4.33366 6C5.25413 6 6.00033 5.25381 6.00033 4.33334C6.00033 3.41286 5.25413 2.66667 4.33366 2.66667C3.41318 2.66667 2.66699 3.41286 2.66699 4.33334C2.66699 5.25381 3.41318 6 4.33366 6ZM4.33366 6V10M11.667 10C10.7465 10 10.0003 10.7462 10.0003 11.6667C10.0003 12.5871 10.7465 13.3333 11.667 13.3333C12.5875 13.3333 13.3337 12.5871 13.3337 11.6667C13.3337 10.7462 12.5875 10 11.667 10ZM11.667 10V6M10.667 10.6667L5.66699 5.66667M6.00033 13.3333H2.66699V10H6.00033V13.3333ZM13.3337 6L11.667 2.66667L10.0003 6H13.3337Z" stroke="white" stroke-width="1.5" stroke-linejoin="round"/>
</svg>
