<svg width="11" height="12" viewBox="0 0 11 12" fill="none" xmlns="http://www.w3.org/2000/svg">
<path d="M0.901301 1.19373L0.893892 1.18594L0.886263 1.17836C0.862913 1.15518 0.844359 1.12762 0.831661 1.09727C0.818961 1.06691 0.812365 1.03435 0.812249 1.00145C0.812133 0.968545 0.818498 0.935941 0.830983 0.905497C0.843468 0.875051 0.861828 0.847363 0.885012 0.824015C0.908195 0.800667 0.935751 0.782114 0.966106 0.769414C0.996463 0.756714 1.02902 0.750118 1.06193 0.750002C1.09483 0.749885 1.12743 0.756251 1.15788 0.768736C1.18644 0.780447 1.21257 0.797328 1.23497 0.818513L5.43654 5.1993C5.50896 5.28285 5.54892 5.38979 5.54892 5.50056C5.54892 5.6143 5.50678 5.724 5.43065 5.8085L5.43057 5.80843L5.42258 5.81759L1.19314 10.6669C1.19309 10.667 1.19304 10.6671 1.19299 10.6671C1.17117 10.692 1.14466 10.7124 1.11498 10.7271C1.08523 10.7419 1.05287 10.7506 1.01974 10.7528C0.98662 10.755 0.95338 10.7507 0.921925 10.7401C0.890473 10.7295 0.861419 10.7127 0.836424 10.6909C0.811425 10.669 0.790979 10.6425 0.77625 10.6127C0.761518 10.583 0.752792 10.5506 0.750568 10.5175C0.748344 10.4844 0.752666 10.4511 0.763288 10.4197C0.773909 10.3882 0.790621 10.3592 0.812474 10.3342L0.813174 10.3334L4.41126 6.20556C4.41171 6.20505 4.41216 6.20454 4.41261 6.20402C4.57208 6.02176 4.65999 5.78779 4.65999 5.54556C4.65999 5.30266 4.57158 5.06805 4.41126 4.88556L4.40149 4.87445L4.3913 4.86373L0.901301 1.19373ZM4.9013 1.19373L4.89389 1.18594L4.88626 1.17836C4.86291 1.15518 4.84436 1.12762 4.83166 1.09727C4.81896 1.06691 4.81237 1.03435 4.81225 1.00145C4.81213 0.968545 4.8185 0.935941 4.83098 0.905497C4.84347 0.875051 4.86183 0.847363 4.88501 0.824015C4.9082 0.800667 4.93575 0.782113 4.96611 0.769414C4.99646 0.756714 5.02902 0.750118 5.06193 0.750002C5.09483 0.749885 5.12743 0.756251 5.15788 0.768736C5.18644 0.780447 5.21257 0.797327 5.23497 0.818512L9.43654 5.1993C9.50896 5.28285 9.54892 5.38979 9.54892 5.50056C9.54892 5.6143 9.50678 5.724 9.43065 5.8085L9.43057 5.80843L9.42258 5.81759L5.19314 10.6669C5.19307 10.667 5.193 10.6671 5.19293 10.6672C5.17112 10.6921 5.14464 10.7124 5.11498 10.7271C5.08523 10.7419 5.05287 10.7506 5.01974 10.7528C4.98662 10.755 4.95338 10.7507 4.92193 10.7401C4.89047 10.7295 4.86142 10.7127 4.83642 10.6909C4.81142 10.669 4.79098 10.6425 4.77625 10.6127C4.76152 10.583 4.75279 10.5506 4.75057 10.5175C4.74834 10.4844 4.75267 10.4511 4.76329 10.4197C4.77391 10.3882 4.79062 10.3592 4.81247 10.3342L4.81317 10.3334L8.41126 6.20557C8.41169 6.20508 8.41212 6.20459 8.41254 6.2041C8.57205 6.02181 8.65999 5.78782 8.65999 5.54556C8.65999 5.30266 8.57158 5.06805 8.41126 4.88556L8.40149 4.87445L8.3913 4.86373L4.9013 1.19373Z" fill="#1D1D1D" stroke="#071921" stroke-width="1.5"/>
</svg>
