<svg width="16" height="16" viewBox="0 0 16 16" fill="none" xmlns="http://www.w3.org/2000/svg">
<path d="M10.3078 2.923H11.6925C11.9373 2.923 12.1721 3.02025 12.3452 3.19336C12.5183 3.36647 12.6155 3.60126 12.6155 3.84608V13.0768C12.6155 13.3217 12.5183 13.5565 12.3452 13.7296C12.1721 13.9027 11.9373 13.9999 11.6925 13.9999H4.30784C4.06303 13.9999 3.82824 13.9027 3.65513 13.7296C3.48202 13.5565 3.38477 13.3217 3.38477 13.0768V3.84608C3.38477 3.60126 3.48202 3.36647 3.65513 3.19336C3.82824 3.02025 4.06303 2.923 4.30784 2.923H5.69246M10.3078 2.923C10.3078 2.4132 9.89456 1.99992 9.38476 1.99992H6.61553C6.10573 1.99992 5.69246 2.4132 5.69246 2.923M10.3078 2.923L10.3078 3.38454C10.3078 3.89434 9.89456 4.30762 9.38476 4.30762H6.61553C6.10573 4.30762 5.69245 3.89434 5.69245 3.38454L5.69246 2.923M5.69245 6.61531H10.3078M5.69245 8.923H10.3078M5.69245 11.2307H10.3078" stroke="white" stroke-width="1.5" stroke-linecap="round" stroke-linejoin="round"/>
</svg>
