<svg width="16" height="16" viewBox="0 0 16 16" fill="none" xmlns="http://www.w3.org/2000/svg">
<path d="M9.34729 7.68817C9.0396 7.38049 8.49815 7.16682 8.00047 7.1532M8.00047 7.1532C7.40844 7.13732 6.87833 7.40545 6.87833 8.1369C6.87833 9.48372 9.34729 8.81031 9.34729 10.1571C9.34729 10.9255 8.69009 11.2556 8.00047 11.2306M8.00047 7.1532V6.34135M6.65365 10.6062C6.94318 10.992 7.48106 11.2118 8.00047 11.2306M8.00047 11.2306V12.1774M8.00042 14.181C11.3338 14.181 13.7147 13 13.7147 10.3714C13.7147 7.5143 12.2861 5.60954 9.42899 4.18097L10.5528 2.73335C10.6099 2.63837 10.6409 2.52998 10.6426 2.41917C10.6443 2.30837 10.6166 2.19908 10.5625 2.10239C10.5084 2.0057 10.4296 1.92505 10.3342 1.8686C10.2389 1.81215 10.1303 1.78192 10.0195 1.78097H5.98137C5.87056 1.78192 5.76196 1.81215 5.6666 1.8686C5.57123 1.92505 5.49249 2.0057 5.43834 2.10239C5.38419 2.19908 5.35657 2.30837 5.35827 2.41917C5.35998 2.52998 5.39094 2.63837 5.44804 2.73335L6.57185 4.19049C3.7147 5.62858 2.28613 7.53335 2.28613 10.3905C2.28613 13 4.66709 14.181 8.00042 14.181Z" stroke="white" stroke-width="1.5" stroke-linecap="round" stroke-linejoin="round"/>
</svg>
