<svg width="16" height="16" viewBox="0 0 16 16" fill="none" xmlns="http://www.w3.org/2000/svg">
<path d="M2.66699 9.9208V9.32821C2.66699 7.91372 3.2289 6.55716 4.22909 5.55697C5.22928 4.55678 6.58584 3.99487 8.00033 3.99487M13.3337 9.9208V9.32821C13.3337 7.91372 12.7718 6.55716 11.7716 5.55697C10.7714 4.55678 9.41481 3.99487 8.00033 3.99487M8.00033 3.99487Lnan nanCnan nan -nan -nan -nan -nanL-nan -nanC-nan -nan -nan -nan -nan -nanL8.00033 3.99487ZM8.77238 9.9208C8.56498 9.74255 8.29521 9.63483 8.00029 9.63483C7.34573 9.63483 6.8151 10.1655 6.8151 10.82C6.8151 11.4746 7.34573 12.0052 8.00029 12.0052C8.65485 12.0052 9.18547 11.4746 9.18547 10.82C9.18547 10.4604 9.02529 10.1382 8.77238 9.9208ZM8.77238 9.9208L9.95756 8.73561" stroke="white" stroke-width="1.5" stroke-linecap="round" stroke-linejoin="round"/>
</svg>
