<svg width="12" height="12" viewBox="0 0 12 12" fill="none" xmlns="http://www.w3.org/2000/svg">
<path d="M9.3817 11.4611C9.47494 11.5537 9.5855 11.627 9.70707 11.6768C9.82864 11.7267 9.95884 11.7521 10.0902 11.7517C10.2216 11.7512 10.3516 11.7249 10.4729 11.6741C10.5941 11.6234 10.7041 11.5493 10.7967 11.4561C10.8893 11.3629 10.9626 11.2523 11.0124 11.1307C11.0623 11.0092 11.0877 10.879 11.0873 10.7476C11.0868 10.6162 11.0604 10.4862 11.0097 10.3649C10.959 10.2437 10.8849 10.1337 10.7917 10.0411L7.3017 6.3711C7.26162 6.32548 7.23951 6.26683 7.23951 6.2061C7.23951 6.14537 7.26162 6.08672 7.3017 6.0411L10.9017 1.9111C10.9884 1.81195 11.0547 1.6967 11.0968 1.57193C11.1389 1.44717 11.1561 1.31532 11.1473 1.18392C11.1384 1.05253 11.1038 0.924159 11.0454 0.806142C10.987 0.688125 10.9058 0.582772 10.8067 0.4961C10.7076 0.409427 10.5923 0.343132 10.4675 0.301C10.3428 0.258867 10.2109 0.241722 10.0795 0.250544C9.94813 0.259365 9.81976 0.29398 9.70174 0.352413C9.58372 0.410846 9.47837 0.491952 9.3917 0.5911L5.1617 5.4411C4.96142 5.66335 4.85059 5.95192 4.85059 6.2511C4.85059 6.55028 4.96142 6.83885 5.1617 7.0611L9.3817 11.4611Z" fill="#CFCFCF"/>
<path d="M5.3817 11.4611C5.47494 11.5537 5.5855 11.627 5.70707 11.6768C5.82864 11.7267 5.95884 11.7521 6.09023 11.7517C6.22163 11.7512 6.35164 11.7249 6.47286 11.6741C6.59408 11.6234 6.70412 11.5493 6.7967 11.4561C6.88928 11.3629 6.96259 11.2523 7.01244 11.1307C7.0623 11.0092 7.08772 10.879 7.08725 10.7476C7.08679 10.6162 7.06045 10.4862 7.00974 10.3649C6.95903 10.2437 6.88494 10.1337 6.7917 10.0411L3.3017 6.3711C3.26162 6.32548 3.23951 6.26683 3.23951 6.2061C3.23951 6.14537 3.26162 6.08672 3.3017 6.0411L6.9017 1.9111C6.98837 1.81195 7.05467 1.6967 7.0968 1.57193C7.13893 1.44717 7.15608 1.31532 7.14725 1.18392C7.13843 1.05253 7.10382 0.924159 7.04538 0.806142C6.98695 0.688125 6.90585 0.582772 6.8067 0.4961C6.70755 0.409427 6.5923 0.343132 6.46753 0.301C6.34276 0.258867 6.21092 0.241722 6.07952 0.250544C5.94813 0.259365 5.81976 0.29398 5.70174 0.352413C5.58372 0.410846 5.47837 0.491952 5.3917 0.5911L1.1617 5.4411C0.961422 5.66335 0.850586 5.95192 0.850586 6.2511C0.850586 6.55028 0.961422 6.83885 1.1617 7.0611L5.3817 11.4611Z" fill="#CFCFCF"/>
</svg>
