<svg width="16" height="16" viewBox="0 0 16 16" fill="none" xmlns="http://www.w3.org/2000/svg">
<path d="M6.7139 9.28614L5.88355 10.1165M10.8329 5.16716L10.0601 5.93997M6.27004 8.08568C6.25129 8.30506 6.28303 8.52583 6.36283 8.73105C6.44264 8.93626 6.56839 9.12047 6.73044 9.26954C6.952 9.52352 7.26339 9.6817 7.59916 9.71083C7.93493 9.73996 8.26892 9.63777 8.5309 9.42575C8.74292 9.16376 8.84511 8.82978 8.81598 8.49401C8.78685 8.15824 8.62867 7.84684 8.3747 7.62529C8.12072 7.40373 7.96255 7.09233 7.93342 6.75656C7.90428 6.42079 8.00647 6.08681 8.21849 5.82482C8.4793 5.60996 8.81398 5.50596 9.15063 5.53517C9.48728 5.56438 9.79905 5.72446 10.019 5.98103C10.1811 6.1245 10.3095 6.30214 10.3948 6.50115C10.4801 6.70017 10.5202 6.91563 10.5122 7.13201M2.20246 10.2069L5.79307 13.7975C5.92287 13.9272 6.09883 14 6.28228 14C6.46573 14 6.64169 13.9272 6.77149 13.7975L13.8973 6.6717C13.9331 6.63747 13.9608 6.59567 13.9784 6.54936C13.996 6.50304 14.003 6.45339 13.9989 6.40402L13.4543 2.86879C13.4498 2.78455 13.4144 2.70494 13.3547 2.64529C13.2951 2.58564 13.2154 2.55017 13.1312 2.54573L9.59598 2.00114C9.54661 1.99704 9.49696 2.00403 9.45064 2.0216C9.40433 2.03917 9.36253 2.06687 9.3283 2.10267L2.20246 9.22851C2.07282 9.35831 2 9.53427 2 9.71772C2 9.90118 2.07282 10.0771 2.20246 10.2069Z" stroke="white" stroke-width="1.5" stroke-linecap="round" stroke-linejoin="round"/>
</svg>
