<svg width="16" height="16" viewBox="0 0 16 16" fill="none" xmlns="http://www.w3.org/2000/svg">
<path d="M6 4.66668V3.82848C6 3.69716 6.0665 3.57122 6.18486 3.47837C6.30323 3.38551 6.46377 3.33334 6.63116 3.33334H12.9428C13.1102 3.33334 13.2707 3.38551 13.3891 3.47837C13.5075 3.57122 13.574 3.69716 13.574 3.82848V8.28471L14 10L12.2604 9.45624M4.31953 12.0142L2 12.6667L2.42604 11.1229V7.1123C2.42604 6.99411 2.49253 6.88077 2.6109 6.7972C2.72927 6.71363 2.8898 6.66668 3.0572 6.66668H9.36884C9.53623 6.66668 9.69677 6.71363 9.81514 6.7972C9.9335 6.88077 10 6.99411 10 7.1123V11.5685C10 11.6867 9.9335 11.8001 9.81514 11.8836C9.69677 11.9672 9.53623 12.0142 9.36884 12.0142H4.31953Z" stroke="white" stroke-width="1.5" stroke-linecap="round" stroke-linejoin="round"/>
</svg>
