<svg width="33" height="32" viewBox="0 0 33 32" fill="none" xmlns="http://www.w3.org/2000/svg">
<path fill-rule="evenodd" clip-rule="evenodd" d="M24.0508 16C24.0508 20.4864 20.4137 24.052 16.0165 24.052C11.6193 24.052 7.98229 20.4864 7.98229 16C7.98229 11.5136 11.6186 7.94795 16.0165 7.94795C20.4145 7.94795 24.0508 11.5136 24.0508 16ZM23.1369 30.3067C20.9917 31.3698 18.5744 31.9677 16.0165 31.9677C7.1709 31.9677 0 24.819 0 16C0 7.18098 7.1709 0.0323181 16.0165 0.0323181C24.8622 0.0323181 32.0331 7.18098 32.0331 16C32.0331 18.8045 31.308 21.4398 30.0342 23.7306C29.2126 23.0892 28.1758 22.7068 27.0491 22.7068C24.3815 22.7068 22.2187 24.8516 22.2187 27.4972C22.2187 28.5472 22.5589 29.518 23.1369 30.3075V30.3067Z" fill="white"/>
</svg>
