<svg width="16" height="16" viewBox="0 0 16 16" fill="none" xmlns="http://www.w3.org/2000/svg">
<path d="M6.39805 3.61538L6.78713 2.59077C6.85275 2.41729 6.96819 2.26807 7.11834 2.16266C7.2685 2.05724 7.44636 2.00055 7.62863 2H8.37059C8.55286 2.00055 8.73072 2.05724 8.88087 2.16266C9.03103 2.26807 9.14647 2.41729 9.21209 2.59077L9.60117 3.61538L10.9222 4.39077L11.9899 4.22462C12.1677 4.2 12.3487 4.22985 12.5098 4.31039C12.6709 4.39093 12.8049 4.51851 12.8948 4.67692L13.2567 5.32308C13.3494 5.48401 13.3922 5.66986 13.3793 5.85608C13.3663 6.0423 13.2984 6.22015 13.1843 6.36615L12.5238 7.22462V8.77538L13.2024 9.63385C13.3165 9.77985 13.3844 9.9577 13.3973 10.1439C13.4103 10.3301 13.3675 10.516 13.2748 10.6769L12.9129 11.3231C12.823 11.4815 12.689 11.6091 12.5279 11.6896C12.3668 11.7701 12.1858 11.8 12.008 11.7754L10.9403 11.6092L9.61926 12.3846L9.23018 13.4092C9.16457 13.5827 9.04912 13.7319 8.89897 13.8373C8.74882 13.9428 8.57096 13.9995 8.38869 14H7.62863C7.44636 13.9995 7.2685 13.9428 7.11834 13.8373C6.96819 13.7319 6.85275 13.5827 6.78713 13.4092L6.39805 12.3846L5.07699 11.6092L4.00929 11.7754C3.8315 11.8 3.65056 11.7701 3.48944 11.6896C3.32833 11.6091 3.19432 11.4815 3.10445 11.3231L2.74252 10.6769C2.64977 10.516 2.60704 10.3301 2.61997 10.1439C2.63289 9.9577 2.70086 9.77985 2.8149 9.63385L3.47543 8.77538V7.22462L2.79681 6.36615C2.68276 6.22015 2.61479 6.0423 2.60187 5.85608C2.58895 5.66986 2.63168 5.48401 2.72442 5.32308L3.08635 4.67692C3.17623 4.51851 3.31023 4.39093 3.47135 4.31039C3.63246 4.22985 3.8134 4.2 3.99119 4.22462L5.0589 4.39077L6.39805 3.61538ZM6.18994 8C6.18994 8.36513 6.29607 8.72207 6.49492 9.02567C6.69377 9.32927 6.9764 9.56589 7.30708 9.70562C7.63775 9.84536 8.00162 9.88192 8.35266 9.81068C8.7037 9.73945 9.02615 9.56362 9.27924 9.30543C9.53233 9.04724 9.70468 8.71829 9.77451 8.36017C9.84433 8.00205 9.8085 7.63085 9.67153 7.29351C9.53456 6.95617 9.30261 6.66784 9.00501 6.46498C8.70741 6.26212 8.35753 6.15385 7.99961 6.15385C7.51966 6.15385 7.05936 6.34835 6.71998 6.69457C6.3806 7.04079 6.18994 7.51037 6.18994 8V8Z" stroke="white" stroke-width="1.5" stroke-linecap="round" stroke-linejoin="round"/>
</svg>
