<svg width="16" height="16" viewBox="0 0 16 16" fill="none" xmlns="http://www.w3.org/2000/svg">
<path d="M8.96411 14.066C9.3719 13.9933 9.64356 13.6039 9.57089 13.1961C9.49821 12.7883 9.10872 12.5166 8.70093 12.5893L8.96411 14.066ZM13.1402 7.71679C12.7832 7.92694 12.6642 8.38665 12.8744 8.7436C13.0845 9.10055 13.5442 9.21956 13.9012 9.00942L13.1402 7.71679ZM5.56586 7.70951L4.81689 7.67024C4.81552 7.6964 4.81552 7.72262 4.81689 7.74878L5.56586 7.70951ZM10.0231 7.70951V8.45951C10.2289 8.45951 10.4256 8.375 10.5672 8.22577C10.7088 8.07654 10.7829 7.87569 10.7721 7.67024L10.0231 7.70951ZM14 8.53886H14.75C14.75 8.22422 14.5536 7.94303 14.2582 7.83471L14 8.53886ZM14 12.8722L14.2582 13.5764C14.5536 13.468 14.75 13.1868 14.75 12.8722H14ZM10.9242 14L10.67 14.7056C10.8357 14.7653 11.0171 14.7648 11.1824 14.7042L10.9242 14ZM7.79445 12.8722H7.04445C7.04445 13.1884 7.24274 13.4706 7.5402 13.5778L7.79445 12.8722ZM7.79445 8.53886L7.5402 7.83327C7.24274 7.94046 7.04445 8.22268 7.04445 8.53886H7.79445ZM10.9242 7.41106L11.1824 6.7069C11.0171 6.64627 10.8357 6.64577 10.67 6.70547L10.9242 7.41106ZM7.79445 12.669C4.998 12.669 2.75 10.4382 2.75 7.70951H1.25C1.25 11.2874 4.19053 14.169 7.79445 14.169V12.669ZM2.75 7.70951C2.75 4.98085 4.998 2.75 7.79445 2.75V1.25C4.19053 1.25 1.25 4.13162 1.25 7.70951H2.75ZM7.79445 2.75C10.5909 2.75 12.8389 4.98085 12.8389 7.70951H14.3389C14.3389 4.13162 11.3984 1.25 7.79445 1.25V2.75ZM8.70093 12.5893C8.40739 12.6416 8.1045 12.669 7.79445 12.669V14.169C8.19311 14.169 8.58406 14.1337 8.96411 14.066L8.70093 12.5893ZM12.8389 7.70951C12.8389 7.99746 12.8222 8.10488 12.8189 8.12158C12.8172 8.13015 12.8242 8.08738 12.855 8.02316C12.8712 7.98932 12.8983 7.94042 12.9415 7.88725C12.9635 7.8602 12.9905 7.83097 13.0233 7.8018C13.0398 7.78719 13.0577 7.77258 13.0772 7.75828C13.0869 7.75113 13.0971 7.74407 13.1076 7.73714C13.1128 7.73367 13.1182 7.73024 13.1236 7.72685C13.1263 7.72515 13.129 7.72346 13.1318 7.72179C13.1332 7.72095 13.1353 7.7197 13.136 7.71928C13.1381 7.71803 13.1402 7.71679 13.5207 8.3631C13.9012 9.00942 13.9033 9.00818 13.9054 9.00693C13.9061 9.00651 13.9081 9.00526 13.9095 9.00442C13.9123 9.00274 13.9151 9.00105 13.9178 8.99935C13.9232 8.99595 13.9286 8.9925 13.9339 8.98901C13.9444 8.98204 13.9547 8.97491 13.9645 8.96766C13.9843 8.95318 14.0026 8.93826 14.0195 8.9232C14.0534 8.89315 14.0819 8.86246 14.1057 8.83311C14.1526 8.77535 14.1851 8.71852 14.2077 8.67133C14.2513 8.5804 14.2753 8.48925 14.2907 8.4111C14.3215 8.25436 14.3389 8.03498 14.3389 7.70951H12.8389ZM8.3729 12.9416C7.1359 11.4428 6.41583 9.5966 6.31483 7.67024L4.81689 7.74878C4.93483 9.99824 5.77565 12.1511 7.21601 13.8964L8.3729 12.9416ZM6.31483 7.74878C6.41583 5.82241 7.1359 3.97625 8.3729 2.47739L7.21601 1.52261C5.77565 3.26789 4.93483 5.42077 4.81689 7.67024L6.31483 7.74878ZM7.21601 2.47739C8.45302 3.97627 9.17316 5.82243 9.27416 7.74878L10.7721 7.67024C10.6542 5.42075 9.81325 3.26788 8.3729 1.52261L7.21601 2.47739ZM13.25 8.53886V12.8722H14.75V8.53886H13.25ZM13.7418 12.168L10.666 13.2958L11.1824 14.7042L14.2582 13.5764L13.7418 12.168ZM11.1785 13.2944L8.04871 12.1666L7.5402 13.5778L10.67 14.7056L11.1785 13.2944ZM8.54445 12.8722V8.53886H7.04445V12.8722H8.54445ZM7.5402 9.24445L10.67 10.3723L11.1785 8.96108L8.04871 7.83327L7.5402 9.24445ZM11.1824 10.3708L14.2582 9.24302L13.7418 7.83471L10.666 8.96251L11.1824 10.3708ZM11.6742 14V9.66667H10.1742V14H11.6742ZM8.04871 9.24445L11.1785 8.11665L10.67 6.70547L7.5402 7.83327L8.04871 9.24445ZM10.666 8.11521L13.7418 9.24302L14.2582 7.83471L11.1824 6.7069L10.666 8.11521ZM2 8.45951H10.0231V6.95951H2V8.45951ZM11.7382 8.45951H13.5889V6.95951H11.7382V8.45951Z" fill="white"/>
</svg>
