<svg width="24" height="24" viewBox="0 0 24 24" fill="none" xmlns="http://www.w3.org/2000/svg">
<path fill-rule="evenodd" clip-rule="evenodd" d="M14.2546 4.74527C13.846 4.33671 13.2919 4.10718 12.7141 4.10718H4.14268C3.56489 4.10718 3.01076 4.3367 2.6022 4.74527C2.19364 5.15383 1.96411 5.70796 1.96411 6.28575V16.2857C1.96411 16.7 2.2999 17.0357 2.71411 17.0357H3.47086C3.81608 18.6679 5.26495 19.8928 6.9999 19.8928C8.73479 19.8928 10.1836 18.668 10.5289 17.0359H12.7565C13.1018 18.668 14.5506 19.8928 16.2855 19.8928C18.0205 19.8928 19.4693 18.6679 19.8146 17.0358H21.2857C21.7 17.0358 22.0357 16.7 22.0357 16.2858V10.5715C22.0357 9.61482 21.6557 8.69733 20.9792 8.02086C20.3028 7.34439 19.3853 6.96436 18.4286 6.96436H14.8927V6.28575C14.8927 5.70796 14.6632 5.15383 14.2546 4.74527ZM14.667 14.9363C14.6938 14.9101 14.7187 14.8819 14.7413 14.8519C15.1261 14.4377 15.6756 14.1785 16.2855 14.1785C17.4493 14.1785 18.3927 15.1219 18.3927 16.2856C18.3927 17.4494 17.4493 18.3928 16.2855 18.3928C15.1291 18.3928 14.1903 17.4612 14.1785 16.3076C14.1787 16.3004 14.1788 16.2931 14.1788 16.2859C14.1788 16.2786 14.1787 16.2713 14.1785 16.2641C14.1836 15.7591 14.3662 15.2967 14.667 14.9363ZM14.8927 8.46436V10.986H20.5357V10.5715C20.5357 10.0126 20.3137 9.47669 19.9186 9.08152C19.5234 8.68636 18.9875 8.46436 18.4286 8.46436H14.8927ZM9.10704 16.2856C9.10704 15.1219 8.16364 14.1785 6.9999 14.1785C5.83615 14.1785 4.89275 15.1219 4.89275 16.2856C4.89275 17.4494 5.83615 18.3928 6.9999 18.3928C8.16364 18.3928 9.10704 17.4494 9.10704 16.2856Z" fill="#888888"/>
</svg>
