<svg width="16" height="16" viewBox="0 0 16 16" fill="none" xmlns="http://www.w3.org/2000/svg">
<path d="M6 5.33333H8M6 8H9.33333M11.8027 13.2224L9.99467 11.8192C9.9728 11.8013 9.9455 11.7915 9.91733 11.7915C9.88917 11.7915 9.86186 11.8013 9.84 11.8192L8.128 13.3033C8.10574 13.3227 8.07736 13.3333 8.048 13.3333C8.01864 13.3333 7.99026 13.3227 7.968 13.3033L6.02667 11.8192C6.00613 11.8007 5.97955 11.7904 5.952 11.7904C5.92445 11.7904 5.89787 11.8007 5.87733 11.8192L4.20267 13.2116C4.18409 13.2251 4.16226 13.2334 4.13944 13.2355C4.11663 13.2376 4.09367 13.2335 4.07297 13.2236C4.05226 13.2137 4.03457 13.1983 4.02174 13.1791C4.0089 13.1599 4.0014 13.1376 4 13.1144V3.74598C4 3.45973 4.11238 3.1852 4.31242 2.98279C4.51246 2.78038 4.78377 2.66667 5.06667 2.66667H10.9333C11.2162 2.66667 11.4875 2.78038 11.6876 2.98279C11.8876 3.1852 12 3.45973 12 3.74598V13.1252C11.9998 13.1483 11.9932 13.1708 11.981 13.1903C11.9688 13.2098 11.9515 13.2254 11.931 13.2355C11.9105 13.2456 11.8877 13.2497 11.865 13.2474C11.8423 13.2451 11.8207 13.2364 11.8027 13.2224Z" stroke="white" stroke-width="1.5" stroke-linecap="round" stroke-linejoin="round"/>
</svg>
